<?xml version="1.0" standalone="no"?>
<!DOCTYPE svg PUBLIC "-//W3C//DTD SVG 20010904//EN"
 "http://www.w3.org/TR/2001/REC-SVG-20010904/DTD/svg10.dtd">
<svg version="1.0" xmlns="http://www.w3.org/2000/svg"
 width="551.000000pt" height="551.000000pt" viewBox="0 0 551.000000 551.000000"
 preserveAspectRatio="xMidYMid meet">

<g transform="translate(0.000000,551.000000) scale(0.100000,-0.100000)"
fill="#000000" stroke="none">
<path d="M1533 4543 c-29 -4 -33 -8 -33 -34 0 -70 51 -659 61 -709 31 -151
128 -259 267 -294 204 -53 431 48 486 217 38 115 29 287 -19 394 -94 209 -364
278 -527 135 l-35 -32 -12 113 c-7 61 -14 136 -17 165 l-5 52 -67 -2 c-37 0
-82 -3 -99 -5z m498 -436 c56 -38 82 -98 87 -197 2 -54 -1 -99 -10 -124 -36
-106 -196 -143 -277 -64 -51 50 -64 84 -68 183 -4 80 -2 95 19 135 31 60 84
90 159 90 42 0 65 -6 90 -23z"/>
<path d="M3985 4466 c-63 -20 -104 -45 -157 -94 -79 -74 -108 -150 -108 -287
0 -197 74 -341 205 -401 133 -61 261 -48 368 37 l37 30 0 -37 0 -36 103 7 c56
4 104 9 106 11 7 7 -30 412 -45 481 -31 148 -102 242 -211 283 -63 24 -232 27
-298 6z m225 -196 c58 -26 95 -130 88 -250 -7 -121 -68 -180 -188 -180 -60 0
-64 2 -105 43 -52 52 -70 105 -69 207 1 141 66 205 199 196 28 -2 61 -9 75
-16z"/>
<path d="M3458 4420 c-91 -9 -153 -36 -202 -90 -58 -64 -61 -91 -42 -317 9
-109 22 -246 28 -305 l12 -107 100 6 c56 3 103 7 105 9 4 4 -9 181 -30 413 -6
62 -8 124 -5 136 10 38 51 57 148 65 48 4 91 10 94 13 3 3 2 46 -1 96 l-8 91
-61 -1 c-33 -1 -96 -5 -138 -9z"/>
<path d="M2649 4366 c-99 -26 -185 -98 -235 -196 -25 -47 -29 -69 -32 -156 -8
-214 59 -353 206 -428 99 -50 256 -51 366 -2 167 75 234 208 214 427 -17 181
-113 308 -267 353 -64 19 -187 20 -252 2z m227 -211 c41 -31 58 -62 73 -133
22 -107 5 -196 -50 -248 -27 -26 -38 -29 -108 -32 -78 -4 -79 -4 -119 33 -55
49 -77 109 -77 210 0 81 18 130 60 165 55 46 164 48 221 5z"/>
<path d="M1373 3533 c-32 -3 -43 -8 -43 -21 0 -55 52 -675 60 -717 32 -159
140 -272 288 -304 195 -41 386 42 457 200 51 114 44 302 -14 426 -98 204 -362
266 -524 123 l-34 -29 -14 162 -14 162 -60 1 c-33 0 -79 -1 -102 -3z m517
-460 c85 -90 91 -281 12 -355 -40 -38 -65 -48 -120 -48 -67 0 -120 30 -156 86
-23 37 -29 59 -33 128 -6 92 4 136 40 178 41 47 75 59 151 56 65 -4 70 -6 106
-45z"/>
<path d="M3813 3456 c-105 -34 -207 -126 -238 -214 -39 -112 -29 -291 24 -406
49 -105 117 -159 242 -191 99 -26 194 -4 281 65 l37 30 3 -33 3 -32 100 4 c55
2 102 5 103 6 6 5 -28 413 -39 475 -12 68 -58 168 -98 213 -18 19 -55 47 -84
63 -48 27 -61 29 -172 31 -80 2 -134 -2 -162 -11z m237 -203 c48 -28 74 -93
78 -198 3 -79 0 -96 -20 -134 -34 -67 -66 -85 -152 -89 -70 -4 -74 -3 -110 28
-56 49 -69 82 -74 191 -4 78 -1 103 13 133 20 41 67 82 105 89 45 9 129 -1
160 -20z"/>
<path d="M3445 3424 c-5 -2 -60 -8 -121 -13 -130 -12 -185 -32 -236 -89 -61
-68 -62 -79 -31 -424 l27 -308 100 6 c56 4 103 8 105 11 3 2 -5 126 -18 275
l-22 272 30 29 c26 26 37 30 102 34 120 7 119 6 118 61 -2 121 -16 158 -54
146z"/>
<path d="M2457 3346 c-119 -43 -197 -123 -233 -242 -30 -100 -13 -268 38 -374
83 -171 307 -239 522 -158 80 29 165 112 190 183 56 160 31 360 -60 479 -39
51 -126 107 -196 124 -78 20 -184 15 -261 -12z m204 -177 c80 -27 120 -96 126
-219 4 -75 2 -90 -19 -130 -34 -67 -76 -90 -159 -90 -62 0 -72 3 -103 30 -51
45 -77 106 -79 187 -1 37 2 85 6 106 9 45 65 104 105 113 15 3 32 7 37 9 21 7
53 5 86 -6z"/>
<path d="M907 2570 c-50 -9 -55 -16 -24 -40 57 -45 100 -189 65 -218 -7 -5
-42 -12 -77 -14 -47 -3 -67 -9 -77 -23 -19 -26 -18 -41 6 -65 16 -16 29 -19
62 -15 24 3 219 19 433 35 215 17 464 37 555 45 91 8 345 28 565 45 220 17
445 35 500 40 55 6 334 28 620 50 525 41 712 57 752 65 48 11 50 75 4 90 -19
6 -167 -4 -676 -46 -132 -11 -465 -37 -740 -59 -275 -21 -635 -50 -800 -64
-490 -41 -706 -56 -716 -50 -5 3 -9 15 -9 28 0 33 -61 127 -99 153 -19 13 -57
30 -84 38 -53 16 -192 18 -260 5z"/>
<path d="M2550 2239 c-431 -31 -838 -127 -1093 -258 -72 -37 -217 -125 -217
-131 0 -3 22 -22 49 -43 43 -31 49 -40 45 -64 -3 -16 -11 -33 -19 -39 -11 -8
-15 -34 -15 -100 0 -76 3 -91 19 -101 24 -15 21 -82 -5 -119 -41 -57 -44 -69
-44 -170 0 -98 1 -101 30 -129 23 -22 30 -38 32 -79 3 -47 5 -51 29 -54 24 -3
27 1 33 40 27 178 217 312 395 278 145 -27 261 -139 280 -269 l6 -46 723 -3
722 -2 0 32 c0 129 129 260 284 289 175 32 361 -101 391 -280 l7 -41 153 0
152 0 7 46 c10 74 7 248 -5 306 -15 71 -43 128 -82 168 -52 54 -224 122 -414
165 l-108 25 -100 102 c-283 289 -502 449 -655 478 -60 11 -442 11 -600 -1z
m0 -339 l0 -210 -445 1 c-245 0 -445 3 -445 6 0 3 11 21 25 38 116 152 334
274 595 331 64 14 218 39 258 43 9 1 12 -47 12 -209z m662 177 c30 -13 80 -45
113 -72 70 -56 233 -214 277 -267 l30 -38 -471 0 -471 0 0 200 0 200 235 0
c224 0 237 -1 287 -23z m1174 -689 l1 -38 -73 0 -74 0 0 40 0 41 73 -3 72 -3
1 -37z"/>
<path d="M1700 1209 c-107 -9 -187 -65 -229 -159 -41 -90 -23 -193 47 -272 68
-75 109 -93 217 -93 102 0 129 10 201 77 48 44 84 124 84 187 0 90 -64 192
-146 231 -62 31 -98 37 -174 29z m117 -194 c34 -39 31 -98 -6 -135 -16 -16
-41 -32 -55 -36 -55 -14 -136 47 -136 103 0 27 37 82 63 93 40 18 109 5 134
-25z"/>
<path d="M3815 1210 c-76 -8 -124 -30 -171 -76 -52 -53 -74 -106 -74 -184 0
-115 53 -194 165 -246 178 -84 398 50 399 242 0 83 -40 162 -103 208 -76 54
-123 66 -216 56z m82 -166 c29 -8 63 -63 63 -101 0 -40 -32 -79 -75 -93 -71
-23 -145 29 -145 102 1 71 74 114 157 92z"/>
</g>
</svg>
